<?xml version="1.0" encoding="utf-8"?>
<!-- Generator: Adobe Illustrator 25.3.0, SVG Export Plug-In . SVG Version: 6.00 Build 0)  -->
<svg version="1.1" id="Layer_1" xmlns="http://www.w3.org/2000/svg" xmlns:xlink="http://www.w3.org/1999/xlink" x="0px" y="0px"
	 viewBox="0 0 500 500" style="enable-background:new 0 0 500 500;" xml:space="preserve">
<style type="text/css">
	.st0{display:none;}
	.st1{fill:#CACECC;}
</style>
<path class="st0" d="M250.4,493c-33.9,0-67.8,0.6-101.7-0.1c-57.9-1.2-100.3-28.2-127.2-79.3C11.6,394.7,7.2,374.3,7.2,353
	c-0.1-68.5-0.2-137.1,0-205.6C7.3,79.7,56.4,21.5,123,9.3C137.6,6.6,152.2,7,166.9,7c61.4,0,122.9-0.1,184.3,0
	c68.2,0.1,125.2,46.6,139.3,113.3c3.1,14.6,2.7,29.4,2.7,44.2c0,61-0.2,122.1,0.1,183.1c0.2,41.2-13.5,76.6-43,105.4
	c-26.6,26-59,39.4-96.3,39.9C319.5,493.4,285,493,250.4,493C250.4,493,250.4,493,250.4,493z M44.7,249.7
	C44.6,249.7,44.6,249.7,44.7,249.7c0,34.4-0.2,68.8,0.1,103.2c0,7.1,0.8,14.4,2.4,21.4c10.7,48.1,52.2,81.3,101.6,81.3
	c67.7,0,135.4,0,203.2,0c27.1,0,50.8-9,70.7-27.5c20.6-19.1,32.2-42.9,32.9-71c0.8-31.6,0.3-63.2,0.3-94.7
	c0-36.6-0.2-73.3,0.1-109.9c0.3-30.5-9.3-56.9-31.1-78.4c-21.3-20.9-47.4-30-77.1-29.7c-28.3,0.4-56.7,0.1-85,0.1
	c-38.8,0-77.5-0.2-116.3,0.1C121.1,44.7,98.8,53.3,80,70c-23.6,20.9-35.3,47.3-35.3,78.9C44.6,182.5,44.7,216.1,44.7,249.7z"/>
<path class="st0" d="M249.9,380.8c-72,0.1-131.8-59.7-130.6-132.9c1.2-71.4,60.7-129.4,131.4-128.8c71.8,0.5,131.6,59.9,130.3,133.3
	C379.7,324.1,320.5,381.1,249.9,380.8z M156.7,249.9c0.5,53,42.1,94,94.9,93.6c50.7-0.4,92.6-42.9,92.1-93.4
	c-0.6-53-42.1-94-94.9-93.6C198.1,156.9,156.2,199.4,156.7,249.9z"/>
<path class="st0" d="M390.2,137.8c-15.6-0.1-27.9-12.4-27.9-28.1c0-15.7,12.6-28.1,28.3-28c15.5,0.1,27.9,12.8,27.8,28.2
	C418.3,125.5,405.8,137.9,390.2,137.8z"/>
<path class="st1" d="M430.7,111.3c-1.3-1.8-1.5-5-1.1-7.3c3.3-21.3,4.3-42.5-2.1-63.3c-7.2-23.2-20.8-30.6-44.6-25.5
	c-19.4,4.1-36.5,13.4-53,23.7c-6.1,3.9-11.5,4.8-18.8,3.1c-39.1-9.2-78.4-9-117.4,0.8c-4.3,1.1-7.6,0.2-11.5-1.8
	c-15.6-8-31.3-16-47.4-23c-6.8-2.9-14.7-3.6-22.2-4.4C99.2,12.3,87.4,21.3,82,36.3c-4.8,13.1-6.2,26.8-5.8,40.5
	c0.2,9.2,1.9,18.3,2.5,27.5c0.2,2.6-0.4,5.7-1.8,7.8c-33.6,52.8-38.1,107.7-10.8,164.1c14.9,30.8,40.1,52,70.8,66.4
	c11.1,5.2,22.8,9,33.6,13.3c-2.5,9.8-4.9,19.5-7.6,29.1c-0.4,1.6-2.1,3.4-3.7,4c-19.4,7.3-36.8,2-48.3-15.3
	c-10.2-15.3-21.2-29.7-38-38.4c-10-5.1-20.5-8-32.3-6.6c1,12.1,2.1,23.9,3.2,36c14.3,0.9,22.5,10.4,30.4,20.6
	c6.8,8.9,13.1,18.5,21.3,26c16.5,15,36.7,19.9,58.8,17c2.2-0.3,4.5-0.5,7.1-0.9v48.4c0,0,22.3,7.1,37.6,10.7
	c-0.1-0.1-0.1-0.3-0.1-0.4c0.2-31.3,0.2-62.7,0.6-94c0.1-9.5,4.2-17.8,9.6-25.5c8.5-12,16.8-24.1,25.5-36.7
	c-15.7-2.7-30.5-4.8-45.1-8c-26.9-5.8-51.4-16.5-71.2-36.4c-25.3-25.3-34.9-56.2-32.3-91.3c1.8-24.9,10.2-47.5,25.9-67.1
	c6.3-7.8,6.4-16.2,4.1-25.5c-4.2-16.5-4.4-33.1-0.2-51.1c5.9,1.9,11.8,3,16.9,5.6c12,6.1,23.9,12.5,35.5,19.5
	c8.4,5,16.7,6.9,26.3,4.4c22.9-5.9,46.3-9.4,70-7.5c15,1.2,30.1,3.6,44.8,6.9c11.9,2.6,22.1,1.6,32.7-4.9c13-8,27-14.4,40.8-21.2
	c2.8-1.4,6.2-1.5,9.5-2.2c4.3,16.5,4.5,32.6,0.3,48.1c-3.5,12.9-0.4,22.5,6.9,33.1c26.5,38.3,30.9,79.7,12,122.3
	c-14.5,32.7-41.6,52.3-75.2,62.3c-17.5,5.3-36,7.7-54,11.3c-2.6,0.5-5.2,0.9-8.9,1.6c8.3,12.1,15.6,23.5,23.8,34.2
	c8,10.6,12,22.2,12.1,35.3c0.1,28.5,0.1,57,0.1,85.5c0,0.5-0.1,0.9-0.2,1.5c10.9-2.5,24-5.9,37.1-10.2V470c0-20.7-0.1-41.4,0-62.1
	c0.1-17.8-1.3-35.2-10.4-52c3.4-1.1,6.4-2.2,9.4-3.1c26.1-8.3,49.8-20.8,69.6-40.1c25-24.4,39.4-54.2,43.2-88.7
	C462.8,183.2,454.3,145.4,430.7,111.3z"/>
</svg>
