<svg id="Layer_1" data-name="Layer 1" xmlns="http://www.w3.org/2000/svg" viewBox="0 0 486.15 486.25"><defs><style>.cls-1{fill:#cacecc;}</style></defs><path class="cls-1" d="M250.45,493c-33.91,0-67.84.57-101.74-.13C90.79,491.68,48.38,464.64,21.5,413.56,11.6,394.74,7.24,374.26,7.22,353q-.09-102.8,0-205.6C7.35,79.69,56.4,21.45,123,9.26,137.55,6.59,152.2,7,166.86,7Q259,7,351.2,7c68.2.1,125.21,46.56,139.28,113.3,3.07,14.59,2.74,29.37,2.74,44.15,0,61-.21,122.09.06,183.13.18,41.19-13.51,76.6-43,105.38-26.65,26-59,39.44-96.26,39.94-34.51.46-69,.1-103.56.1ZM44.65,249.67h0c0,34.42-.13,68.83.11,103.25a102.93,102.93,0,0,0,2.36,21.36c10.66,48.15,52.23,81.28,101.59,81.28q101.58,0,203.16,0c27.1,0,50.81-9,70.68-27.45,20.62-19.1,32.21-42.9,32.91-71,.79-31.56.31-63.16.33-94.74,0-36.64-.24-73.29.09-109.93.28-30.49-9.28-56.94-31.11-78.37-21.32-20.94-47.37-30-77.15-29.66-28.34.36-56.69.08-85,.09-38.77,0-77.54-.16-116.31.11A98.44,98.44,0,0,0,80,70c-23.59,20.89-35.29,47.35-35.34,78.88Q44.59,199.27,44.65,249.67ZM249.93,380.8c-72,.13-131.76-59.71-130.57-132.9,1.16-71.43,60.67-129.36,131.39-128.83C322.51,119.6,382.38,179,381,252.38,379.67,324.08,320.52,381.14,249.93,380.8ZM156.72,249.88c.53,53,42.15,94,94.88,93.6,50.68-.41,92.6-42.92,92.07-93.38-.56-53-42.11-94-94.89-93.57C198.06,156.94,156.22,199.36,156.72,249.88ZM390.25,137.79A28,28,0,1,1,418.44,110,27.76,27.76,0,0,1,390.25,137.79Z" transform="translate(-7.13 -6.96)"/></svg>