<?xml version="1.0" encoding="utf-8"?>
<!-- Generator: Adobe Illustrator 25.3.0, SVG Export Plug-In . SVG Version: 6.00 Build 0)  -->
<svg version="1.1" id="Layer_1" xmlns="http://www.w3.org/2000/svg" xmlns:xlink="http://www.w3.org/1999/xlink" x="0px" y="0px"
	 viewBox="0 0 500 500" style="enable-background:new 0 0 500 500;" xml:space="preserve">
<style type="text/css">
	.st0{display:none;}
	.st1{fill:#CACECC;}
</style>
<path class="st0" d="M250.4,493c-33.9,0-67.8,0.6-101.7-0.1c-57.9-1.2-100.3-28.2-127.2-79.3C11.6,394.7,7.2,374.3,7.2,353
	c-0.1-68.5-0.2-137.1,0-205.6C7.3,79.7,56.4,21.5,123,9.3C137.6,6.6,152.2,7,166.9,7c61.4,0,122.9-0.1,184.3,0
	c68.2,0.1,125.2,46.6,139.3,113.3c3.1,14.6,2.7,29.4,2.7,44.2c0,61-0.2,122.1,0.1,183.1c0.2,41.2-13.5,76.6-43,105.4
	c-26.6,26-59,39.4-96.3,39.9C319.5,493.4,285,493,250.4,493C250.4,493,250.4,493,250.4,493z M44.7,249.7
	C44.6,249.7,44.6,249.7,44.7,249.7c0,34.4-0.2,68.8,0.1,103.2c0,7.1,0.8,14.4,2.4,21.4c10.7,48.1,52.2,81.3,101.6,81.3
	c67.7,0,135.4,0,203.2,0c27.1,0,50.8-9,70.7-27.5c20.6-19.1,32.2-42.9,32.9-71c0.8-31.6,0.3-63.2,0.3-94.7
	c0-36.6-0.2-73.3,0.1-109.9c0.3-30.5-9.3-56.9-31.1-78.4c-21.3-20.9-47.4-30-77.1-29.7c-28.3,0.4-56.7,0.1-85,0.1
	c-38.8,0-77.5-0.2-116.3,0.1C121.1,44.7,98.8,53.3,80,70c-23.6,20.9-35.3,47.3-35.3,78.9C44.6,182.5,44.7,216.1,44.7,249.7z"/>
<path class="st0" d="M249.9,380.8c-72,0.1-131.8-59.7-130.6-132.9c1.2-71.4,60.7-129.4,131.4-128.8c71.8,0.5,131.6,59.9,130.3,133.3
	C379.7,324.1,320.5,381.1,249.9,380.8z M156.7,249.9c0.5,53,42.1,94,94.9,93.6c50.7-0.4,92.6-42.9,92.1-93.4
	c-0.6-53-42.1-94-94.9-93.6C198.1,156.9,156.2,199.4,156.7,249.9z"/>
<path class="st0" d="M390.2,137.8c-15.6-0.1-27.9-12.4-27.9-28.1c0-15.7,12.6-28.1,28.3-28c15.5,0.1,27.9,12.8,27.8,28.2
	C418.3,125.5,405.8,137.9,390.2,137.8z"/>
<path class="st0" d="M430.7,111.3c-1.3-1.8-1.5-5-1.1-7.3c3.3-21.3,4.3-42.5-2.1-63.3c-7.2-23.2-20.8-30.6-44.6-25.5
	c-19.4,4.1-36.5,13.4-53,23.7c-6.1,3.9-11.5,4.8-18.8,3.1c-39.1-9.2-78.4-9-117.4,0.8c-4.3,1.1-7.6,0.2-11.5-1.8
	c-15.6-8-31.3-16-47.4-23c-6.8-2.9-14.7-3.6-22.2-4.4C99.2,12.3,87.4,21.3,82,36.3c-4.8,13.1-6.2,26.8-5.8,40.5
	c0.2,9.2,1.9,18.3,2.5,27.5c0.2,2.6-0.4,5.7-1.8,7.8c-33.6,52.8-38.1,107.7-10.8,164.1c14.9,30.8,40.1,52,70.8,66.4
	c11.1,5.2,22.8,9,33.6,13.3c-2.5,9.8-4.9,19.5-7.6,29.1c-0.4,1.6-2.1,3.4-3.7,4c-19.4,7.3-36.8,2-48.3-15.3
	c-10.2-15.3-21.2-29.7-38-38.4c-10-5.1-20.5-8-32.3-6.6c1,12.1,2.1,23.9,3.2,36c14.3,0.9,22.5,10.4,30.4,20.6
	c6.8,8.9,13.1,18.5,21.3,26c16.5,15,36.7,19.9,58.8,17c2.2-0.3,4.5-0.5,7.1-0.9v48.4c0,0,22.3,7.1,37.6,10.7
	c-0.1-0.1-0.1-0.3-0.1-0.4c0.2-31.3,0.2-62.7,0.6-94c0.1-9.5,4.2-17.8,9.6-25.5c8.5-12,16.8-24.1,25.5-36.7
	c-15.7-2.7-30.5-4.8-45.1-8c-26.9-5.8-51.4-16.5-71.2-36.4c-25.3-25.3-34.9-56.2-32.3-91.3c1.8-24.9,10.2-47.5,25.9-67.1
	c6.3-7.8,6.4-16.2,4.1-25.5c-4.2-16.5-4.4-33.1-0.2-51.1c5.9,1.9,11.8,3,16.9,5.6c12,6.1,23.9,12.5,35.5,19.5
	c8.4,5,16.7,6.9,26.3,4.4c22.9-5.9,46.3-9.4,70-7.5c15,1.2,30.1,3.6,44.8,6.9c11.9,2.6,22.1,1.6,32.7-4.9c13-8,27-14.4,40.8-21.2
	c2.8-1.4,6.2-1.5,9.5-2.2c4.3,16.5,4.5,32.6,0.3,48.1c-3.5,12.9-0.4,22.5,6.9,33.1c26.5,38.3,30.9,79.7,12,122.3
	c-14.5,32.7-41.6,52.3-75.2,62.3c-17.5,5.3-36,7.7-54,11.3c-2.6,0.5-5.2,0.9-8.9,1.6c8.3,12.1,15.6,23.5,23.8,34.2
	c8,10.6,12,22.2,12.1,35.3c0.1,28.5,0.1,57,0.1,85.5c0,0.5-0.1,0.9-0.2,1.5c10.9-2.5,24-5.9,37.1-10.2V470c0-20.7-0.1-41.4,0-62.1
	c0.1-17.8-1.3-35.2-10.4-52c3.4-1.1,6.4-2.2,9.4-3.1c26.1-8.3,49.8-20.8,69.6-40.1c25-24.4,39.4-54.2,43.2-88.7
	C462.8,183.2,454.3,145.4,430.7,111.3z"/>
<path class="st0" d="M99,344.2c-3.3-3.4-6.5-6.4-9.5-9.7c-10.7-11.8-18.4-25.3-23.3-40.4c-1.5-4.7-1.8-9.5-1.1-14.4
	c0.1-0.8-0.2-1.9-0.7-2.5c-15.3-17.5-24.7-37.9-27.5-61c-0.8-6.6-0.8-13.3-0.4-19.9c0.3-4.8,2.6-9,5.7-12.8c1-1.2,1-2.2,0.5-3.5
	c-10.3-31.8-7.7-62.4,8.5-91.7c10.6-19.1,35.4-21.5,49.3-4.7c20.3,24.5,44.8,43.5,73.7,56.7c13.1,6,26.7,10.5,40.8,13.6
	c0.3,0.1,0.6,0.1,1.1,0.1c0.2-1.3,0.5-2.5,0.7-3.8c8.3-46.8,44.4-83.2,91.1-91.2c31-5.3,59.5,1.6,85.2,19.8c1.6,1.2,2.9,1.3,4.7,0.7
	c9.4-3.2,18.3-7.4,26.9-12.3c14.1-8,31.5-3.6,39.9,10c4.2,6.8,5.5,14.3,3.7,22.2c-0.3,1.4-0.1,2.2,1,3.1c12.1,10,14.4,27,5.5,40
	c-9.8,14.3-21,27.2-34.1,38.5c-1.2,1.1-1.4,2.2-1.5,3.6c-0.5,23.3-3.9,46.1-10.7,68.4c-20.2,66.7-59.1,119.1-119.4,154.8
	c-27.1,16-56.4,26-87.5,31c-24.7,4-49.5,4.9-74.4,2.2c-41-4.5-78.9-17.9-113.8-40c-11.2-7.1-16.2-20.3-12.7-32.8
	c3.6-12.8,14.4-21.5,27.7-21.9c4-0.1,8.1,0.5,12.2,0.8c12.5,0.8,24.9-0.1,37.2-2.8C98.2,344.4,98.4,344.3,99,344.2z M170.5,342.3
	c-35.5,27.1-75.5,38.2-120.1,34.3c7,4.2,13.8,8.3,20.9,11.8c50.3,24.9,103.1,30.5,157.7,18.9c49.1-10.5,90.2-35,122.5-73.3
	c39.7-47.1,59.3-101.6,57.9-163.4c0-1.8,0.5-2.9,2-3.9c14.7-10.9,27.1-23.8,37.5-38.8c0.4-0.5,0.7-1.1,0.9-1.6
	c-7.5,2.5-14.8,5.3-22.4,7.4c-7.6,2.1-15.4,3.4-23.1,5.1c-0.1-0.2-0.2-0.5-0.3-0.7c16.8-10.8,28.7-25.5,35.1-44.6
	c-0.5,0-0.6,0-0.7,0.1c-0.5,0.3-1,0.6-1.5,0.8c-15,8.5-31,14.6-47.8,18.2c-1.5,0.3-2.4,0-3.4-1C366,92.1,342.3,84.1,315,87.9
	c-45.5,6.3-77,50.2-69,95.4c0.3,1.5,0.5,2.9,0.8,4.8c-68.9-4.8-125.1-33.5-169.7-86c-10.5,18.8-13.6,38.6-8.9,59.4
	c4.7,20.9,16.3,37.3,33.5,50c-12.9-0.2-24.8-3.8-36.4-9.5c2.4,42.5,24.2,69.5,65.1,81.5c-5.9,1.6-11.8,2.6-17.9,2.5
	c-6,0-12-0.5-17.9-0.8C101.7,309.9,128.3,340.4,170.5,342.3z"/>
<path class="st1" d="M281.6,186c0.2-0.4,0.4-0.8,0.7-1.1c14.7-15.6,32.6-25.6,53.4-30.6c8.1-1.9,16.3-2.8,24.6-2.8
	c6.9,0,13.9-0.1,20.8,0.1c45.7,1.4,85.4,30.9,99.9,74.3c4.1,12.3,6.1,25,6,38c0,38.9,0,77.8,0,116.7c0,28.5-0.1,57,0.1,85.5
	c0,7.8-6.6,15.1-13.3,16.4c-0.9,0.2-1.8,0.2-2.6,0.2c-26.2,0-52.4,0-78.7,0c-6.5,0-11-3.7-14.1-9.1c-1.2-2-1.8-4.3-1.8-6.7
	c0-0.7,0-1.3,0-2c0-55.5,0-111.1,0-166.6c0-5.1-0.4-10.1-1.4-15.1c-1.8-8.8-6.3-15.9-13.4-21.4c-7.4-5.7-15.6-9-24.9-9.9
	c-12.3-1.1-23.2,2.2-32.5,10.4c-7.7,6.8-12.4,15.5-14.5,25.5c-0.8,3.8-1,7.7-1,11.6c0,55.9,0,111.9,0,167.8c0,1.5-0.1,3.1-0.5,4.6
	c-0.6,2.7-2.1,4.9-4.2,6.6c-3.2,2.8-7,4.3-11.3,4.3c-28.8,0-57.7,0-86.5,0c-4.7,0-8.8-1.8-12.1-5.1c-2.4-2.4-3.8-5.3-3.8-8.8
	c0-0.6,0-1.2,0-1.8c0-97.1,0-194.1,0-291.1c0-8.7,5.7-15.2,14.3-16.4c0.7-0.1,1.3-0.1,2-0.1c25.9,0,51.9,0.1,77.8,0
	c8.6,0,16.8,8.4,16.4,16.5c-0.1,3.3,0,6.5,0,9.8C281.2,185.7,281.4,185.9,281.6,186z M393.1,467c0.9,0,1.5,0,2.2,0
	c24.4,0,48.8,0,73.2,0c2.7,0,2.9-0.3,2.9-2.9c0-66.4,0-132.9,0-199.3c0-3.9-0.2-7.9-0.6-11.8c-1.1-11.6-4.2-22.6-9.3-33
	c-15.6-32.2-47.5-52.4-83.2-52.6c-5.8,0-11.7,0-17.5,0c-9.1,0-18,1.3-26.7,4c-18.5,5.8-33.8,16-45.4,31.6c-0.3,0.4-0.6,0.8-1,1.1
	c-6.8,6.8-13.7,13.7-20.5,20.5c-0.2,0.2-0.6,0.4-1.1,0.8c0-0.9,0-1.5,0-2.1c0-15.2,0-30.3,0-45.5c0-0.4,0-0.9,0-1.3
	c0-0.8-0.5-1.2-1.2-1.3c-0.5-0.1-1,0-1.5,0c-10.3,0-20.6,0-30.8,0c-14.4,0-28.8,0-43.2,0c-0.7,0-1.4,0.1-2,0.1
	c-0.4,2.8-0.2,290.4,0.1,291.6c28.8,0,57.6,0,86.6,0c0-0.8,0-1.5,0-2.2c0-43.9,0-87.8,0-131.7c0-11.9,0-23.9,0-35.8
	c0-7.2,1.3-14.2,3.7-21c10-28,37-42.8,62.5-39.8c12.2,1.4,23.1,5.9,32.7,13.7c8.6,6.9,14.2,15.8,17,26.4c1.7,6.6,2.4,13.4,2.4,20.3
	c0.2,35.5,0.3,71,0.5,106.5c0.1,20.5,0.2,41.1,0.3,61.7C393.1,465.5,393.1,466.1,393.1,467z M131.9,321.3c0,45.7-0.1,91.4,0.1,137.2
	c0.1,12.4-9.3,21.6-18.8,23.7c-1.6,0.3-3.2,0.5-4.8,0.5c-21.2,0-42.4,0.1-63.7,0c-11,0-21.2-8.8-23-19.7c-0.2-1.4-0.4-2.9-0.4-4.3
	c0-91.7,0-183.3,0-275c0-5.8,1.5-11.1,5.1-15.7c4.5-5.6,10.4-8.6,17.5-8.6c21.5-0.1,43-0.1,64.5,0c12.5,0.1,23.3,10.9,23.4,23.6
	c0,0.8,0,1.6,0,2.3C131.9,230.6,131.9,276,131.9,321.3z M116,321.6c0-34.2,0-68.3,0-102.5c0-11.8,0-23.7,0-35.5c0-2.5-1-4.5-2.7-6.2
	c-1.7-1.6-3.6-2.2-5.9-2.2c-20.8,0-41.7,0-62.5,0c-3.9,0-6.9,2.5-7.6,6.3c-0.2,1-0.2,2.1-0.2,3.1c0,90.9,0,181.9,0,272.8
	c0,0.4,0,0.9,0,1.3c0,1.9,0.6,3.5,1.8,4.9c1.8,2.2,4.1,3.3,7,3.3c20.5,0,41,0,61.5,0c0.4,0,0.8,0,1.2,0c2-0.1,3.8-0.9,5.3-2.2
	c1.7-1.6,2.3-3.5,2.3-5.8C116,413.1,116,367.3,116,321.6z M75.4,17.4c18.9,0.2,33.7,6.2,45.8,18.6c6.4,6.6,11.6,14,14.9,22.7
	c2.6,6.8,3.7,13.8,3.6,21c-0.1,7.6-1,15-3.8,22c-7.8,19.9-21.6,33.4-42.2,39.7c-4.9,1.5-10,2.1-15.1,2.2c-4.6,0.1-9.2,0.1-13.8-0.8
	c-12-2.3-22.4-7.8-31.2-16.1c-10.1-9.6-16.8-21.2-19.2-35c-3.2-18.6,1-35.5,12.8-50.4c9.8-12.5,22.7-20.1,38.3-22.9
	C69.3,17.8,73.2,17.6,75.4,17.4z M76.2,127.8c4.9,0.2,9.1-0.2,13.3-1.4c9.7-2.7,17.5-8.3,23.9-16c8.8-10.5,11.8-22.9,10.1-36.3
	c-1.6-12.7-7.6-23.1-17.6-30.9c-15.2-11.7-32-13.1-49.3-5.7c-16.4,7-30.6,26.3-26.7,50.7c2.6,16.2,11.7,27.8,26.4,34.9
	C62.7,126.4,69.6,127.8,76.2,127.8z"/>
</svg>
