<?xml version="1.0" encoding="utf-8"?>
<!-- Generator: Adobe Illustrator 25.3.0, SVG Export Plug-In . SVG Version: 6.00 Build 0)  -->
<svg version="1.1" id="Layer_1" xmlns="http://www.w3.org/2000/svg" xmlns:xlink="http://www.w3.org/1999/xlink" x="0px" y="0px"
	 viewBox="0 0 500 500" style="enable-background:new 0 0 500 500;" xml:space="preserve">
<style type="text/css">
	.st0{display:none;}
	.st1{fill:#CACECC;}
</style>
<path class="st0" d="M250.45,493c-33.91,0-67.84,0.57-101.74-0.13c-57.92-1.19-100.33-28.23-127.21-79.31
	c-9.9-18.82-14.26-39.3-14.28-60.59c-0.06-68.53-0.16-137.07-0.01-205.6C7.35,79.69,56.4,21.45,122.98,9.26
	C137.55,6.59,152.2,7.01,166.86,7c61.45-0.03,122.9-0.07,184.34,0.02c68.2,0.1,125.21,46.56,139.28,113.3
	c3.07,14.59,2.74,29.37,2.74,44.15c-0.02,61.04-0.21,122.09,0.06,183.13c0.18,41.19-13.51,76.6-43.01,105.38
	c-26.65,26.01-59.01,39.44-96.26,39.94c-34.51,0.46-69.04,0.1-103.56,0.1C250.45,493.01,250.45,493.01,250.45,493z M44.65,249.67
	c-0.01,0-0.02,0-0.03,0c0,34.42-0.13,68.83,0.11,103.25c0.05,7.13,0.82,14.4,2.36,21.36c10.66,48.15,52.23,81.28,101.59,81.28
	c67.72,0,135.44-0.01,203.16-0.04c27.1-0.01,50.81-9.05,70.68-27.45c20.62-19.1,32.21-42.9,32.91-71.03
	c0.79-31.56,0.31-63.16,0.33-94.74c0.03-36.64-0.24-73.29,0.09-109.93c0.28-30.49-9.28-56.94-31.11-78.37
	c-21.32-20.94-47.37-30.04-77.15-29.66c-28.34,0.36-56.69,0.08-85.03,0.09c-38.77,0.01-77.54-0.16-116.31,0.11
	C121.11,44.73,98.83,53.31,80,69.98c-23.59,20.89-35.29,47.35-35.34,78.88C44.61,182.47,44.65,216.07,44.65,249.67z"/>
<path class="st0" d="M249.93,380.8c-71.99,0.13-131.76-59.71-130.57-132.9c1.16-71.43,60.67-129.36,131.39-128.83
	c71.76,0.53,131.63,59.93,130.26,133.31C379.67,324.08,320.52,381.14,249.93,380.8z M156.72,249.88
	c0.53,52.97,42.15,94.02,94.88,93.6c50.68-0.41,92.6-42.92,92.07-93.38c-0.56-53.02-42.11-94-94.89-93.57
	C198.06,156.94,156.22,199.36,156.72,249.88z"/>
<path class="st0" d="M390.25,137.79c-15.58-0.05-27.88-12.44-27.85-28.05c0.03-15.67,12.59-28.11,28.27-27.98
	c15.45,0.12,27.86,12.75,27.77,28.24C418.34,125.48,405.79,137.85,390.25,137.79z"/>
<path class="st0" d="M430.74,111.28c-1.28-1.84-1.46-4.97-1.09-7.34c3.28-21.26,4.33-42.52-2.13-63.34
	c-7.2-23.25-20.8-30.56-44.64-25.55c-19.41,4.09-36.45,13.38-52.96,23.71c-6.14,3.86-11.55,4.84-18.78,3.13
	c-39.14-9.21-78.39-9.03-117.45,0.8c-4.29,1.09-7.58,0.22-11.47-1.78c-15.62-8.01-31.27-16.04-47.39-22.95
	c-6.79-2.91-14.7-3.62-22.2-4.37c-13.43-1.33-25.2,7.75-30.66,22.71c-4.79,13.1-6.18,26.75-5.84,40.51
	c0.22,9.2,1.87,18.34,2.49,27.52c0.17,2.57-0.39,5.67-1.76,7.8C43.28,164.89,38.73,219.82,66.1,276.21
	c14.93,30.77,40.06,52.02,70.82,66.42c11.08,5.18,22.77,9.04,33.6,13.28c-2.54,9.84-4.91,19.53-7.62,29.1
	c-0.45,1.58-2.14,3.38-3.68,3.97c-19.37,7.3-36.75,1.99-48.29-15.34c-10.22-15.33-21.17-29.73-38.02-38.41
	c-9.99-5.13-20.46-7.97-32.3-6.6c1.05,12.09,2.09,23.88,3.16,36.04c14.28,0.92,22.52,10.35,30.38,20.6
	c6.84,8.89,13.13,18.53,21.34,26c16.53,15.05,36.72,19.89,58.81,16.99c2.24-0.3,4.46-0.55,7.13-0.87v48.43
	c0,0,22.29,7.12,37.58,10.7c-0.07-0.13-0.11-0.26-0.11-0.38c0.17-31.34,0.24-62.69,0.64-94.05c0.13-9.47,4.16-17.78,9.6-25.46
	c8.5-12,16.78-24.14,25.5-36.73c-15.72-2.74-30.52-4.79-45.09-7.95c-26.85-5.82-51.37-16.5-71.18-36.35
	c-25.26-25.33-34.91-56.18-32.33-91.26c1.83-24.93,10.22-47.5,25.93-67.11c6.26-7.82,6.42-16.22,4.07-25.51
	c-4.18-16.49-4.41-33.14-0.18-51.08c5.89,1.89,11.76,2.99,16.88,5.57c12.04,6.07,23.93,12.5,35.48,19.46
	c8.39,5.04,16.66,6.92,26.31,4.43c22.92-5.89,46.29-9.45,69.97-7.53c15.04,1.22,30.08,3.62,44.81,6.88
	c11.92,2.64,22.09,1.57,32.72-4.95c13.01-7.97,27.02-14.37,40.75-21.17c2.78-1.37,6.18-1.47,9.53-2.21
	c4.34,16.53,4.46,32.62,0.32,48.09c-3.45,12.89-0.39,22.49,6.92,33.05c26.52,38.31,30.92,79.71,12.04,122.3
	c-14.5,32.73-41.64,52.27-75.18,62.34c-17.55,5.28-35.97,7.66-54,11.33c-2.59,0.53-5.22,0.92-8.93,1.57
	c8.33,12.08,15.64,23.45,23.76,34.21c8,10.59,12.05,22.24,12.1,35.34c0.09,28.5,0.07,57,0.07,85.48c0,0.47-0.08,0.93-0.18,1.49
	c10.93-2.49,24.02-5.87,37.12-10.2v-6.08c0-20.71-0.08-41.42,0.03-62.11c0.09-17.78-1.28-35.22-10.35-52
	c3.41-1.13,6.39-2.17,9.39-3.12c26.14-8.28,49.8-20.84,69.56-40.14c25-24.42,39.38-54.21,43.23-88.74
	C462.75,183.18,454.28,145.35,430.74,111.28z"/>
<path class="st1" d="M98.98,344.17c-3.3-3.35-6.5-6.4-9.46-9.67c-10.69-11.78-18.4-25.3-23.32-40.43c-1.54-4.72-1.8-9.51-1.11-14.41
	c0.11-0.79-0.19-1.89-0.71-2.48c-15.34-17.55-24.68-37.85-27.49-60.98c-0.8-6.58-0.77-13.32-0.4-19.94
	c0.26-4.75,2.62-9.04,5.65-12.77c0.97-1.2,0.98-2.16,0.53-3.53c-10.35-31.78-7.73-62.41,8.47-91.7
	c10.59-19.14,35.37-21.5,49.33-4.69c20.33,24.48,44.82,43.47,73.75,56.71c13.11,6,26.72,10.51,40.79,13.64
	c0.27,0.06,0.56,0.07,1.09,0.13c0.24-1.29,0.49-2.54,0.71-3.79c8.31-46.81,44.37-83.19,91.07-91.21
	c31.05-5.33,59.53,1.59,85.21,19.84c1.61,1.15,2.9,1.34,4.73,0.72c9.39-3.17,18.26-7.41,26.88-12.28
	c14.12-7.98,31.45-3.6,39.89,10.01c4.25,6.85,5.52,14.29,3.72,22.16c-0.32,1.4-0.08,2.18,1.05,3.11c12.1,9.98,14.36,27.01,5.5,39.97
	c-9.76,14.28-21.02,27.21-34.13,38.51c-1.22,1.05-1.44,2.19-1.47,3.62c-0.5,23.28-3.93,46.14-10.66,68.41
	c-20.16,66.69-59.06,119.09-119.37,154.79c-27.09,16.03-56.45,26-87.5,31.05c-24.71,4.02-49.53,4.87-74.43,2.16
	c-41.03-4.46-78.95-17.86-113.75-40.04c-11.16-7.11-16.19-20.32-12.74-32.77c3.56-12.83,14.36-21.48,27.71-21.86
	c4.04-0.12,8.1,0.54,12.15,0.81c12.54,0.82,24.94-0.15,37.22-2.79C98.17,344.41,98.44,344.32,98.98,344.17z M170.46,342.26
	c-35.47,27.1-75.54,38.24-120.06,34.33c6.95,4.2,13.81,8.3,20.95,11.83c50.33,24.89,103.11,30.51,157.72,18.87
	c49.06-10.46,90.19-34.95,122.51-73.3c39.7-47.1,59.33-101.62,57.93-163.43c-0.04-1.83,0.54-2.86,1.97-3.92
	c14.66-10.85,27.12-23.83,37.47-38.84c0.37-0.54,0.67-1.12,0.92-1.56c-7.51,2.51-14.83,5.31-22.36,7.38
	c-7.58,2.08-15.36,3.43-23.06,5.1c-0.11-0.24-0.21-0.48-0.32-0.71c16.84-10.79,28.66-25.46,35.15-44.56
	c-0.48,0.04-0.63,0.01-0.74,0.07c-0.52,0.27-1.02,0.55-1.53,0.84c-15,8.54-30.95,14.57-47.83,18.18c-1.46,0.31-2.36,0-3.42-1.03
	c-19.76-19.39-43.44-27.43-70.8-23.62c-45.5,6.34-77.02,50.17-68.96,95.44c0.26,1.46,0.5,2.92,0.82,4.76
	c-68.86-4.77-125.13-33.51-169.66-85.97c-10.52,18.84-13.63,38.61-8.95,59.45c4.69,20.9,16.28,37.33,33.54,49.97
	c-12.91-0.23-24.83-3.84-36.37-9.49c2.45,42.52,24.21,69.48,65.06,81.53c-5.91,1.56-11.83,2.59-17.86,2.54
	c-5.98-0.05-11.96-0.52-17.87-0.81C101.73,309.91,128.29,340.36,170.46,342.26z"/>
</svg>
